<mxfile host="app.diagrams.net" modified="2023-12-07T22:27:44.072Z" agent="Mozilla/5.0 (Windows NT 10.0; Win64; x64) AppleWebKit/537.36 (KHTML, like Gecko) Chrome/119.0.0.0 Safari/537.36" etag="iRP5MJO7ERxvwORlk-8M" version="22.1.7" type="device">
  <diagram name="Страница — 1" id="9UvKwsmPsrKjFIOzT972">
    <mxGraphModel dx="1687" dy="892" grid="1" gridSize="10" guides="1" tooltips="1" connect="1" arrows="1" fold="1" page="1" pageScale="1" pageWidth="827" pageHeight="1169" math="0" shadow="0">
      <root>
        <mxCell id="0" />
        <mxCell id="1" parent="0" />
        <mxCell id="RHqpIr7BbqMgwlnsGWP6-1" value="" style="fontStyle=1;align=center;verticalAlign=top;childLayout=stackLayout;horizontal=1;horizontalStack=0;resizeParent=1;resizeParentMax=0;resizeLast=0;marginBottom=0;fontSize=17;" vertex="1" parent="1">
          <mxGeometry x="830" y="150" width="140" height="40" as="geometry" />
        </mxCell>
        <mxCell id="RHqpIr7BbqMgwlnsGWP6-2" value="&lt;font style=&quot;font-size: 17px;&quot;&gt;PyQT&lt;/font&gt;" style="html=1;align=left;spacingLeft=4;verticalAlign=top;strokeColor=none;fillColor=none;whiteSpace=wrap;" vertex="1" parent="RHqpIr7BbqMgwlnsGWP6-1">
          <mxGeometry width="140" height="40" as="geometry" />
        </mxCell>
        <mxCell id="RHqpIr7BbqMgwlnsGWP6-3" value="" style="shape=module;jettyWidth=10;jettyHeight=4;" vertex="1" parent="RHqpIr7BbqMgwlnsGWP6-2">
          <mxGeometry x="1" width="16" height="20" relative="1" as="geometry">
            <mxPoint x="-25" y="9" as="offset" />
          </mxGeometry>
        </mxCell>
        <mxCell id="RHqpIr7BbqMgwlnsGWP6-10" value="" style="fontStyle=1;align=center;verticalAlign=top;childLayout=stackLayout;horizontal=1;horizontalStack=0;resizeParent=1;resizeParentMax=0;resizeLast=0;marginBottom=0;" vertex="1" parent="1">
          <mxGeometry x="1022" y="950" width="140" height="40" as="geometry" />
        </mxCell>
        <mxCell id="RHqpIr7BbqMgwlnsGWP6-11" value="&lt;font style=&quot;font-size: 17px;&quot;&gt;Roboflow&lt;/font&gt;" style="html=1;align=left;spacingLeft=4;verticalAlign=top;strokeColor=none;fillColor=none;whiteSpace=wrap;" vertex="1" parent="RHqpIr7BbqMgwlnsGWP6-10">
          <mxGeometry width="140" height="40" as="geometry" />
        </mxCell>
        <mxCell id="RHqpIr7BbqMgwlnsGWP6-12" value="" style="shape=module;jettyWidth=10;jettyHeight=4;" vertex="1" parent="RHqpIr7BbqMgwlnsGWP6-11">
          <mxGeometry x="1" width="16" height="20" relative="1" as="geometry">
            <mxPoint x="-25" y="9" as="offset" />
          </mxGeometry>
        </mxCell>
        <mxCell id="RHqpIr7BbqMgwlnsGWP6-13" value="" style="fontStyle=1;align=center;verticalAlign=top;childLayout=stackLayout;horizontal=1;horizontalStack=0;resizeParent=1;resizeParentMax=0;resizeLast=0;marginBottom=0;" vertex="1" parent="1">
          <mxGeometry x="610" y="950" width="140" height="40" as="geometry" />
        </mxCell>
        <mxCell id="RHqpIr7BbqMgwlnsGWP6-14" value="&lt;div style=&quot;background-color: rgb(255, 255, 255); color: rgb(8, 8, 8); font-family: &amp;quot;JetBrains Mono&amp;quot;, monospace;&quot;&gt;&lt;font style=&quot;font-size: 15px;&quot;&gt;ultralytics&lt;/font&gt;&lt;/div&gt;" style="html=1;align=left;spacingLeft=4;verticalAlign=top;strokeColor=none;fillColor=none;whiteSpace=wrap;" vertex="1" parent="RHqpIr7BbqMgwlnsGWP6-13">
          <mxGeometry width="140" height="40" as="geometry" />
        </mxCell>
        <mxCell id="RHqpIr7BbqMgwlnsGWP6-15" value="" style="shape=module;jettyWidth=10;jettyHeight=4;" vertex="1" parent="RHqpIr7BbqMgwlnsGWP6-14">
          <mxGeometry x="1" width="16" height="20" relative="1" as="geometry">
            <mxPoint x="-25" y="9" as="offset" />
          </mxGeometry>
        </mxCell>
        <mxCell id="RHqpIr7BbqMgwlnsGWP6-19" value="" style="html=1;dropTarget=0;whiteSpace=wrap;" vertex="1" parent="1">
          <mxGeometry x="260" y="290" width="1010" height="530" as="geometry" />
        </mxCell>
        <mxCell id="RHqpIr7BbqMgwlnsGWP6-20" value="" style="shape=module;jettyWidth=8;jettyHeight=4;" vertex="1" parent="RHqpIr7BbqMgwlnsGWP6-19">
          <mxGeometry x="1" width="20" height="20" relative="1" as="geometry">
            <mxPoint x="-27" y="7" as="offset" />
          </mxGeometry>
        </mxCell>
        <mxCell id="RHqpIr7BbqMgwlnsGWP6-21" value="" style="fontStyle=1;align=center;verticalAlign=top;childLayout=stackLayout;horizontal=1;horizontalStack=0;resizeParent=1;resizeParentMax=0;resizeLast=0;marginBottom=0;" vertex="1" parent="1">
          <mxGeometry x="827" y="950" width="140" height="40" as="geometry" />
        </mxCell>
        <mxCell id="RHqpIr7BbqMgwlnsGWP6-22" value="&lt;font style=&quot;font-size: 19px;&quot;&gt;CV2&lt;/font&gt;" style="html=1;align=left;spacingLeft=4;verticalAlign=top;strokeColor=none;fillColor=none;whiteSpace=wrap;" vertex="1" parent="RHqpIr7BbqMgwlnsGWP6-21">
          <mxGeometry width="140" height="40" as="geometry" />
        </mxCell>
        <mxCell id="RHqpIr7BbqMgwlnsGWP6-23" value="" style="shape=module;jettyWidth=10;jettyHeight=4;" vertex="1" parent="RHqpIr7BbqMgwlnsGWP6-22">
          <mxGeometry x="1" width="16" height="20" relative="1" as="geometry">
            <mxPoint x="-25" y="9" as="offset" />
          </mxGeometry>
        </mxCell>
        <mxCell id="RHqpIr7BbqMgwlnsGWP6-24" value="" style="fontStyle=1;align=center;verticalAlign=top;childLayout=stackLayout;horizontal=1;horizontalStack=0;resizeParent=1;resizeParentMax=0;resizeLast=0;marginBottom=0;" vertex="1" parent="1">
          <mxGeometry x="1040" y="150" width="140" height="40" as="geometry" />
        </mxCell>
        <mxCell id="RHqpIr7BbqMgwlnsGWP6-25" value="&lt;font style=&quot;font-size: 15px;&quot;&gt;Pathlib&lt;/font&gt;" style="html=1;align=left;spacingLeft=4;verticalAlign=top;strokeColor=none;fillColor=none;whiteSpace=wrap;" vertex="1" parent="RHqpIr7BbqMgwlnsGWP6-24">
          <mxGeometry width="140" height="40" as="geometry" />
        </mxCell>
        <mxCell id="RHqpIr7BbqMgwlnsGWP6-26" value="" style="shape=module;jettyWidth=10;jettyHeight=4;" vertex="1" parent="RHqpIr7BbqMgwlnsGWP6-25">
          <mxGeometry x="1" width="16" height="20" relative="1" as="geometry">
            <mxPoint x="-25" y="9" as="offset" />
          </mxGeometry>
        </mxCell>
        <mxCell id="RHqpIr7BbqMgwlnsGWP6-27" value="" style="fontStyle=1;align=center;verticalAlign=top;childLayout=stackLayout;horizontal=1;horizontalStack=0;resizeParent=1;resizeParentMax=0;resizeLast=0;marginBottom=0;" vertex="1" parent="1">
          <mxGeometry x="290" y="360" width="90" height="40" as="geometry" />
        </mxCell>
        <mxCell id="RHqpIr7BbqMgwlnsGWP6-28" value="&lt;font style=&quot;font-size: 19px;&quot;&gt;main&lt;/font&gt;" style="html=1;align=left;spacingLeft=4;verticalAlign=top;strokeColor=none;fillColor=none;whiteSpace=wrap;" vertex="1" parent="RHqpIr7BbqMgwlnsGWP6-27">
          <mxGeometry width="90" height="40" as="geometry" />
        </mxCell>
        <mxCell id="RHqpIr7BbqMgwlnsGWP6-29" value="" style="shape=module;jettyWidth=10;jettyHeight=4;" vertex="1" parent="RHqpIr7BbqMgwlnsGWP6-28">
          <mxGeometry x="1" width="16" height="20" relative="1" as="geometry">
            <mxPoint x="-25" y="9" as="offset" />
          </mxGeometry>
        </mxCell>
        <mxCell id="RHqpIr7BbqMgwlnsGWP6-30" value="" style="html=1;rounded=0;" vertex="1" parent="1">
          <mxGeometry x="370" y="365" width="30" height="30" as="geometry" />
        </mxCell>
        <mxCell id="RHqpIr7BbqMgwlnsGWP6-31" value="" style="endArrow=none;html=1;rounded=0;align=center;verticalAlign=top;endFill=0;labelBackgroundColor=none;endSize=2;" edge="1" source="RHqpIr7BbqMgwlnsGWP6-30" target="RHqpIr7BbqMgwlnsGWP6-32" parent="1">
          <mxGeometry relative="1" as="geometry" />
        </mxCell>
        <mxCell id="RHqpIr7BbqMgwlnsGWP6-32" value="" style="shape=requiredInterface;html=1;fontSize=11;align=center;fillColor=none;points=[];aspect=fixed;resizable=0;verticalAlign=bottom;labelPosition=center;verticalLabelPosition=top;flipH=1;" vertex="1" parent="1">
          <mxGeometry x="425" y="375" width="5" height="10" as="geometry" />
        </mxCell>
        <mxCell id="RHqpIr7BbqMgwlnsGWP6-40" value="" style="endArrow=none;html=1;rounded=0;align=center;verticalAlign=top;endFill=0;labelBackgroundColor=none;endSize=2;" edge="1" source="RHqpIr7BbqMgwlnsGWP6-41" target="RHqpIr7BbqMgwlnsGWP6-39" parent="1">
          <mxGeometry relative="1" as="geometry" />
        </mxCell>
        <mxCell id="RHqpIr7BbqMgwlnsGWP6-41" value="" style="ellipse;html=1;fontSize=11;align=center;fillColor=none;points=[];aspect=fixed;resizable=0;verticalAlign=bottom;labelPosition=center;verticalLabelPosition=top;flipH=1;flipV=1;" vertex="1" parent="1">
          <mxGeometry x="430" y="376" width="8" height="8" as="geometry" />
        </mxCell>
        <mxCell id="RHqpIr7BbqMgwlnsGWP6-47" value="" style="endArrow=none;html=1;rounded=0;align=center;verticalAlign=top;endFill=0;labelBackgroundColor=none;endSize=2;" edge="1" source="RHqpIr7BbqMgwlnsGWP6-46" target="RHqpIr7BbqMgwlnsGWP6-48" parent="1">
          <mxGeometry relative="1" as="geometry" />
        </mxCell>
        <mxCell id="RHqpIr7BbqMgwlnsGWP6-48" value="" style="shape=requiredInterface;html=1;fontSize=11;align=center;fillColor=none;points=[];aspect=fixed;resizable=0;verticalAlign=bottom;labelPosition=center;verticalLabelPosition=top;flipH=1;rotation=90;" vertex="1" parent="1">
          <mxGeometry x="582.5" y="520" width="5" height="10" as="geometry" />
        </mxCell>
        <mxCell id="RHqpIr7BbqMgwlnsGWP6-49" value="&lt;font style=&quot;font-size: 23px;&quot;&gt;main_window&lt;/font&gt;" style="html=1;dropTarget=0;whiteSpace=wrap;" vertex="1" parent="1">
          <mxGeometry x="542.5" y="320" width="227.5" height="110" as="geometry" />
        </mxCell>
        <mxCell id="RHqpIr7BbqMgwlnsGWP6-50" value="" style="shape=module;jettyWidth=8;jettyHeight=4;" vertex="1" parent="RHqpIr7BbqMgwlnsGWP6-49">
          <mxGeometry x="1" width="20" height="20" relative="1" as="geometry">
            <mxPoint x="-27" y="7" as="offset" />
          </mxGeometry>
        </mxCell>
        <mxCell id="RHqpIr7BbqMgwlnsGWP6-39" value="" style="html=1;rounded=0;flipH=1;flipV=1;direction=south;" vertex="1" parent="1">
          <mxGeometry x="530" y="365" width="30" height="30" as="geometry" />
        </mxCell>
        <mxCell id="RHqpIr7BbqMgwlnsGWP6-46" value="" style="html=1;rounded=0;" vertex="1" parent="1">
          <mxGeometry x="570" y="410" width="30" height="30" as="geometry" />
        </mxCell>
        <mxCell id="RHqpIr7BbqMgwlnsGWP6-52" value="" style="endArrow=none;html=1;rounded=0;align=center;verticalAlign=top;endFill=0;labelBackgroundColor=none;endSize=2;" edge="1" source="RHqpIr7BbqMgwlnsGWP6-51" target="RHqpIr7BbqMgwlnsGWP6-53" parent="1">
          <mxGeometry relative="1" as="geometry" />
        </mxCell>
        <mxCell id="RHqpIr7BbqMgwlnsGWP6-53" value="" style="ellipse;html=1;fontSize=11;align=center;fillColor=none;points=[];aspect=fixed;resizable=0;verticalAlign=bottom;labelPosition=center;verticalLabelPosition=top;flipH=1;" vertex="1" parent="1">
          <mxGeometry x="581" y="530" width="8" height="8" as="geometry" />
        </mxCell>
        <mxCell id="RHqpIr7BbqMgwlnsGWP6-54" value="&lt;font style=&quot;font-size: 16px;&quot;&gt;main_window_controller&lt;/font&gt;" style="html=1;dropTarget=0;whiteSpace=wrap;" vertex="1" parent="1">
          <mxGeometry x="487.5" y="610" width="195" height="90" as="geometry" />
        </mxCell>
        <mxCell id="RHqpIr7BbqMgwlnsGWP6-55" value="" style="shape=module;jettyWidth=8;jettyHeight=4;" vertex="1" parent="RHqpIr7BbqMgwlnsGWP6-54">
          <mxGeometry x="1" width="20" height="20" relative="1" as="geometry">
            <mxPoint x="-27" y="7" as="offset" />
          </mxGeometry>
        </mxCell>
        <mxCell id="RHqpIr7BbqMgwlnsGWP6-51" value="" style="html=1;rounded=0;" vertex="1" parent="1">
          <mxGeometry x="570" y="600" width="30" height="30" as="geometry" />
        </mxCell>
        <mxCell id="RHqpIr7BbqMgwlnsGWP6-57" value="&lt;font style=&quot;font-size: 20px;&quot;&gt;yolo_model&lt;/font&gt;" style="html=1;dropTarget=0;whiteSpace=wrap;" vertex="1" parent="1">
          <mxGeometry x="790" y="610" width="195" height="90" as="geometry" />
        </mxCell>
        <mxCell id="RHqpIr7BbqMgwlnsGWP6-58" value="" style="shape=module;jettyWidth=8;jettyHeight=4;" vertex="1" parent="RHqpIr7BbqMgwlnsGWP6-57">
          <mxGeometry x="1" width="20" height="20" relative="1" as="geometry">
            <mxPoint x="-27" y="7" as="offset" />
          </mxGeometry>
        </mxCell>
        <mxCell id="RHqpIr7BbqMgwlnsGWP6-59" value="&lt;font style=&quot;font-size: 18px;&quot;&gt;settings_controller&lt;/font&gt;" style="html=1;dropTarget=0;whiteSpace=wrap;" vertex="1" parent="1">
          <mxGeometry x="1070" y="610" width="195" height="90" as="geometry" />
        </mxCell>
        <mxCell id="RHqpIr7BbqMgwlnsGWP6-60" value="" style="shape=module;jettyWidth=8;jettyHeight=4;" vertex="1" parent="RHqpIr7BbqMgwlnsGWP6-59">
          <mxGeometry x="1" width="20" height="20" relative="1" as="geometry">
            <mxPoint x="-27" y="7" as="offset" />
          </mxGeometry>
        </mxCell>
        <mxCell id="RHqpIr7BbqMgwlnsGWP6-61" value="&lt;font style=&quot;font-size: 24px;&quot;&gt;settings&lt;/font&gt;" style="html=1;dropTarget=0;whiteSpace=wrap;" vertex="1" parent="1">
          <mxGeometry x="1046" y="330" width="195" height="90" as="geometry" />
        </mxCell>
        <mxCell id="RHqpIr7BbqMgwlnsGWP6-62" value="" style="shape=module;jettyWidth=8;jettyHeight=4;" vertex="1" parent="RHqpIr7BbqMgwlnsGWP6-61">
          <mxGeometry x="1" width="20" height="20" relative="1" as="geometry">
            <mxPoint x="-27" y="7" as="offset" />
          </mxGeometry>
        </mxCell>
        <mxCell id="RHqpIr7BbqMgwlnsGWP6-63" value="" style="html=1;rounded=0;" vertex="1" parent="1">
          <mxGeometry x="1060" y="640" width="30" height="30" as="geometry" />
        </mxCell>
        <mxCell id="RHqpIr7BbqMgwlnsGWP6-64" value="" style="endArrow=none;html=1;rounded=0;align=center;verticalAlign=top;endFill=0;labelBackgroundColor=none;endSize=2;" edge="1" source="RHqpIr7BbqMgwlnsGWP6-63" target="RHqpIr7BbqMgwlnsGWP6-65" parent="1">
          <mxGeometry relative="1" as="geometry" />
        </mxCell>
        <mxCell id="RHqpIr7BbqMgwlnsGWP6-65" value="" style="shape=requiredInterface;html=1;fontSize=11;align=center;fillColor=none;points=[];aspect=fixed;resizable=0;verticalAlign=bottom;labelPosition=center;verticalLabelPosition=top;flipH=1;rotation=180;" vertex="1" parent="1">
          <mxGeometry x="1030" y="650" width="5" height="10" as="geometry" />
        </mxCell>
        <mxCell id="RHqpIr7BbqMgwlnsGWP6-66" value="" style="html=1;rounded=0;" vertex="1" parent="1">
          <mxGeometry x="970" y="640" width="30" height="30" as="geometry" />
        </mxCell>
        <mxCell id="RHqpIr7BbqMgwlnsGWP6-67" value="" style="endArrow=none;html=1;rounded=0;align=center;verticalAlign=top;endFill=0;labelBackgroundColor=none;endSize=2;" edge="1" source="RHqpIr7BbqMgwlnsGWP6-66" target="RHqpIr7BbqMgwlnsGWP6-68" parent="1">
          <mxGeometry relative="1" as="geometry" />
        </mxCell>
        <mxCell id="RHqpIr7BbqMgwlnsGWP6-68" value="" style="ellipse;html=1;fontSize=11;align=center;fillColor=none;points=[];aspect=fixed;resizable=0;verticalAlign=bottom;labelPosition=center;verticalLabelPosition=top;flipH=1;" vertex="1" parent="1">
          <mxGeometry x="1022" y="651" width="8" height="8" as="geometry" />
        </mxCell>
        <mxCell id="RHqpIr7BbqMgwlnsGWP6-69" value="" style="html=1;rounded=0;" vertex="1" parent="1">
          <mxGeometry x="780" y="640" width="30" height="30" as="geometry" />
        </mxCell>
        <mxCell id="RHqpIr7BbqMgwlnsGWP6-70" value="" style="endArrow=none;html=1;rounded=0;align=center;verticalAlign=top;endFill=0;labelBackgroundColor=none;endSize=2;" edge="1" source="RHqpIr7BbqMgwlnsGWP6-69" target="RHqpIr7BbqMgwlnsGWP6-71" parent="1">
          <mxGeometry relative="1" as="geometry" />
        </mxCell>
        <mxCell id="RHqpIr7BbqMgwlnsGWP6-71" value="" style="ellipse;html=1;fontSize=11;align=center;fillColor=none;points=[];aspect=fixed;resizable=0;verticalAlign=bottom;labelPosition=center;verticalLabelPosition=top;flipH=1;" vertex="1" parent="1">
          <mxGeometry x="730" y="651" width="8" height="8" as="geometry" />
        </mxCell>
        <mxCell id="RHqpIr7BbqMgwlnsGWP6-72" value="" style="html=1;rounded=0;" vertex="1" parent="1">
          <mxGeometry x="670" y="640" width="30" height="30" as="geometry" />
        </mxCell>
        <mxCell id="RHqpIr7BbqMgwlnsGWP6-73" value="" style="endArrow=none;html=1;rounded=0;align=center;verticalAlign=top;endFill=0;labelBackgroundColor=none;endSize=2;" edge="1" source="RHqpIr7BbqMgwlnsGWP6-72" target="RHqpIr7BbqMgwlnsGWP6-74" parent="1">
          <mxGeometry relative="1" as="geometry" />
        </mxCell>
        <mxCell id="RHqpIr7BbqMgwlnsGWP6-74" value="" style="shape=requiredInterface;html=1;fontSize=11;align=center;fillColor=none;points=[];aspect=fixed;resizable=0;verticalAlign=bottom;labelPosition=center;verticalLabelPosition=top;flipH=1;" vertex="1" parent="1">
          <mxGeometry x="725" y="650" width="5" height="10" as="geometry" />
        </mxCell>
        <mxCell id="RHqpIr7BbqMgwlnsGWP6-75" value="" style="html=1;rounded=0;" vertex="1" parent="1">
          <mxGeometry x="1142" y="600" width="30" height="30" as="geometry" />
        </mxCell>
        <mxCell id="RHqpIr7BbqMgwlnsGWP6-76" value="" style="endArrow=none;html=1;rounded=0;align=center;verticalAlign=top;endFill=0;labelBackgroundColor=none;endSize=2;" edge="1" source="RHqpIr7BbqMgwlnsGWP6-75" target="RHqpIr7BbqMgwlnsGWP6-77" parent="1">
          <mxGeometry relative="1" as="geometry" />
        </mxCell>
        <mxCell id="RHqpIr7BbqMgwlnsGWP6-77" value="" style="ellipse;html=1;fontSize=11;align=center;fillColor=none;points=[];aspect=fixed;resizable=0;verticalAlign=bottom;labelPosition=center;verticalLabelPosition=top;flipH=1;" vertex="1" parent="1">
          <mxGeometry x="1153" y="475" width="8" height="8" as="geometry" />
        </mxCell>
        <mxCell id="RHqpIr7BbqMgwlnsGWP6-78" value="" style="html=1;rounded=0;" vertex="1" parent="1">
          <mxGeometry x="1142" y="411" width="30" height="30" as="geometry" />
        </mxCell>
        <mxCell id="RHqpIr7BbqMgwlnsGWP6-79" value="" style="endArrow=none;html=1;rounded=0;align=center;verticalAlign=top;endFill=0;labelBackgroundColor=none;endSize=2;" edge="1" source="RHqpIr7BbqMgwlnsGWP6-78" target="RHqpIr7BbqMgwlnsGWP6-80" parent="1">
          <mxGeometry relative="1" as="geometry" />
        </mxCell>
        <mxCell id="RHqpIr7BbqMgwlnsGWP6-80" value="" style="shape=requiredInterface;html=1;fontSize=11;align=center;fillColor=none;points=[];aspect=fixed;resizable=0;verticalAlign=bottom;labelPosition=center;verticalLabelPosition=top;flipH=1;rotation=90;" vertex="1" parent="1">
          <mxGeometry x="1154.5" y="465" width="5" height="10" as="geometry" />
        </mxCell>
        <mxCell id="RHqpIr7BbqMgwlnsGWP6-81" value="" style="html=1;rounded=0;" vertex="1" parent="1">
          <mxGeometry x="1040" y="360" width="30" height="30" as="geometry" />
        </mxCell>
        <mxCell id="RHqpIr7BbqMgwlnsGWP6-82" value="" style="endArrow=none;html=1;rounded=0;align=center;verticalAlign=top;endFill=0;labelBackgroundColor=none;endSize=2;" edge="1" source="RHqpIr7BbqMgwlnsGWP6-81" target="RHqpIr7BbqMgwlnsGWP6-83" parent="1">
          <mxGeometry relative="1" as="geometry" />
        </mxCell>
        <mxCell id="RHqpIr7BbqMgwlnsGWP6-83" value="" style="ellipse;html=1;fontSize=11;align=center;fillColor=none;points=[];aspect=fixed;resizable=0;verticalAlign=bottom;labelPosition=center;verticalLabelPosition=top;flipH=1;" vertex="1" parent="1">
          <mxGeometry x="845" y="451" width="8" height="8" as="geometry" />
        </mxCell>
        <mxCell id="RHqpIr7BbqMgwlnsGWP6-84" value="" style="html=1;rounded=0;" vertex="1" parent="1">
          <mxGeometry x="620" y="600" width="30" height="30" as="geometry" />
        </mxCell>
        <mxCell id="RHqpIr7BbqMgwlnsGWP6-85" value="" style="endArrow=none;html=1;rounded=0;align=center;verticalAlign=top;endFill=0;labelBackgroundColor=none;endSize=2;" edge="1" source="RHqpIr7BbqMgwlnsGWP6-84" target="RHqpIr7BbqMgwlnsGWP6-86" parent="1">
          <mxGeometry relative="1" as="geometry" />
        </mxCell>
        <mxCell id="RHqpIr7BbqMgwlnsGWP6-86" value="" style="shape=requiredInterface;html=1;fontSize=11;align=center;fillColor=none;points=[];aspect=fixed;resizable=0;verticalAlign=bottom;labelPosition=center;verticalLabelPosition=top;flipH=1;" vertex="1" parent="1">
          <mxGeometry x="840" y="450" width="5" height="10" as="geometry" />
        </mxCell>
        <mxCell id="RHqpIr7BbqMgwlnsGWP6-90" value="" style="html=1;rounded=0;" vertex="1" parent="1">
          <mxGeometry x="800" y="690" width="30" height="30" as="geometry" />
        </mxCell>
        <mxCell id="RHqpIr7BbqMgwlnsGWP6-91" value="" style="endArrow=none;html=1;rounded=0;align=center;verticalAlign=top;endFill=0;labelBackgroundColor=none;endSize=2;" edge="1" source="RHqpIr7BbqMgwlnsGWP6-90" target="RHqpIr7BbqMgwlnsGWP6-92" parent="1">
          <mxGeometry relative="1" as="geometry" />
        </mxCell>
        <mxCell id="RHqpIr7BbqMgwlnsGWP6-92" value="" style="shape=requiredInterface;html=1;fontSize=11;align=center;fillColor=none;points=[];aspect=fixed;resizable=0;verticalAlign=bottom;labelPosition=center;verticalLabelPosition=top;flipH=1;rotation=180;" vertex="1" parent="1">
          <mxGeometry x="685" y="760" width="5" height="10" as="geometry" />
        </mxCell>
        <mxCell id="RHqpIr7BbqMgwlnsGWP6-93" value="" style="html=1;rounded=0;" vertex="1" parent="1">
          <mxGeometry x="885" y="690" width="30" height="30" as="geometry" />
        </mxCell>
        <mxCell id="RHqpIr7BbqMgwlnsGWP6-94" value="" style="endArrow=none;html=1;rounded=0;align=center;verticalAlign=top;endFill=0;labelBackgroundColor=none;endSize=2;" edge="1" source="RHqpIr7BbqMgwlnsGWP6-93" target="RHqpIr7BbqMgwlnsGWP6-95" parent="1">
          <mxGeometry relative="1" as="geometry" />
        </mxCell>
        <mxCell id="RHqpIr7BbqMgwlnsGWP6-95" value="" style="shape=requiredInterface;html=1;fontSize=11;align=center;fillColor=none;points=[];aspect=fixed;resizable=0;verticalAlign=bottom;labelPosition=center;verticalLabelPosition=top;flipH=1;rotation=90;" vertex="1" parent="1">
          <mxGeometry x="897.5" y="750" width="5" height="10" as="geometry" />
        </mxCell>
        <mxCell id="RHqpIr7BbqMgwlnsGWP6-97" value="" style="html=1;rounded=0;" vertex="1" parent="1">
          <mxGeometry x="962" y="690" width="30" height="30" as="geometry" />
        </mxCell>
        <mxCell id="RHqpIr7BbqMgwlnsGWP6-98" value="" style="endArrow=none;html=1;rounded=0;align=center;verticalAlign=top;endFill=0;labelBackgroundColor=none;endSize=2;" edge="1" source="RHqpIr7BbqMgwlnsGWP6-97" target="RHqpIr7BbqMgwlnsGWP6-99" parent="1">
          <mxGeometry relative="1" as="geometry" />
        </mxCell>
        <mxCell id="RHqpIr7BbqMgwlnsGWP6-99" value="" style="shape=requiredInterface;html=1;fontSize=11;align=center;fillColor=none;points=[];aspect=fixed;resizable=0;verticalAlign=bottom;labelPosition=center;verticalLabelPosition=top;flipH=1;rotation=90;" vertex="1" parent="1">
          <mxGeometry x="1082.5" y="752" width="5" height="10" as="geometry" />
        </mxCell>
        <mxCell id="RHqpIr7BbqMgwlnsGWP6-100" value="" style="html=1;rounded=0;" vertex="1" parent="1">
          <mxGeometry x="665" y="810" width="30" height="30" as="geometry" />
        </mxCell>
        <mxCell id="RHqpIr7BbqMgwlnsGWP6-101" value="" style="endArrow=none;html=1;rounded=0;align=center;verticalAlign=top;endFill=0;labelBackgroundColor=none;endSize=2;" edge="1" source="RHqpIr7BbqMgwlnsGWP6-100" target="RHqpIr7BbqMgwlnsGWP6-102" parent="1">
          <mxGeometry relative="1" as="geometry" />
        </mxCell>
        <mxCell id="RHqpIr7BbqMgwlnsGWP6-102" value="" style="ellipse;html=1;fontSize=11;align=center;fillColor=none;points=[];aspect=fixed;resizable=0;verticalAlign=bottom;labelPosition=center;verticalLabelPosition=top;flipH=1;" vertex="1" parent="1">
          <mxGeometry x="677" y="761" width="8" height="8" as="geometry" />
        </mxCell>
        <mxCell id="RHqpIr7BbqMgwlnsGWP6-103" value="" style="html=1;rounded=0;" vertex="1" parent="1">
          <mxGeometry x="885" y="810" width="30" height="30" as="geometry" />
        </mxCell>
        <mxCell id="RHqpIr7BbqMgwlnsGWP6-104" value="" style="endArrow=none;html=1;rounded=0;align=center;verticalAlign=top;endFill=0;labelBackgroundColor=none;endSize=2;" edge="1" source="RHqpIr7BbqMgwlnsGWP6-103" target="RHqpIr7BbqMgwlnsGWP6-105" parent="1">
          <mxGeometry relative="1" as="geometry" />
        </mxCell>
        <mxCell id="RHqpIr7BbqMgwlnsGWP6-105" value="" style="ellipse;html=1;fontSize=11;align=center;fillColor=none;points=[];aspect=fixed;resizable=0;verticalAlign=bottom;labelPosition=center;verticalLabelPosition=top;flipH=1;" vertex="1" parent="1">
          <mxGeometry x="896" y="761" width="8" height="8" as="geometry" />
        </mxCell>
        <mxCell id="RHqpIr7BbqMgwlnsGWP6-106" value="" style="html=1;rounded=0;" vertex="1" parent="1">
          <mxGeometry x="1070" y="810" width="30" height="30" as="geometry" />
        </mxCell>
        <mxCell id="RHqpIr7BbqMgwlnsGWP6-107" value="" style="endArrow=none;html=1;rounded=0;align=center;verticalAlign=top;endFill=0;labelBackgroundColor=none;endSize=2;" edge="1" source="RHqpIr7BbqMgwlnsGWP6-106" target="RHqpIr7BbqMgwlnsGWP6-108" parent="1">
          <mxGeometry relative="1" as="geometry" />
        </mxCell>
        <mxCell id="RHqpIr7BbqMgwlnsGWP6-108" value="" style="ellipse;html=1;fontSize=11;align=center;fillColor=none;points=[];aspect=fixed;resizable=0;verticalAlign=bottom;labelPosition=center;verticalLabelPosition=top;flipH=1;" vertex="1" parent="1">
          <mxGeometry x="1081" y="762" width="8" height="8" as="geometry" />
        </mxCell>
        <mxCell id="RHqpIr7BbqMgwlnsGWP6-113" value="" style="endArrow=none;html=1;rounded=0;align=center;verticalAlign=top;endFill=0;labelBackgroundColor=none;endSize=2;exitX=0.5;exitY=1;exitDx=0;exitDy=0;" edge="1" source="RHqpIr7BbqMgwlnsGWP6-100" target="RHqpIr7BbqMgwlnsGWP6-114" parent="1">
          <mxGeometry relative="1" as="geometry" />
        </mxCell>
        <mxCell id="RHqpIr7BbqMgwlnsGWP6-114" value="" style="shape=requiredInterface;html=1;fontSize=11;align=center;fillColor=none;points=[];aspect=fixed;resizable=0;verticalAlign=bottom;labelPosition=center;verticalLabelPosition=top;flipH=1;rotation=90;" vertex="1" parent="1">
          <mxGeometry x="678.5" y="870" width="5" height="10" as="geometry" />
        </mxCell>
        <mxCell id="RHqpIr7BbqMgwlnsGWP6-115" value="" style="html=1;rounded=0;" vertex="1" parent="1">
          <mxGeometry x="665" y="930" width="30" height="30" as="geometry" />
        </mxCell>
        <mxCell id="RHqpIr7BbqMgwlnsGWP6-116" value="" style="endArrow=none;html=1;rounded=0;align=center;verticalAlign=top;endFill=0;labelBackgroundColor=none;endSize=2;" edge="1" source="RHqpIr7BbqMgwlnsGWP6-115" target="RHqpIr7BbqMgwlnsGWP6-117" parent="1">
          <mxGeometry relative="1" as="geometry" />
        </mxCell>
        <mxCell id="RHqpIr7BbqMgwlnsGWP6-117" value="" style="ellipse;html=1;fontSize=11;align=center;fillColor=none;points=[];aspect=fixed;resizable=0;verticalAlign=bottom;labelPosition=center;verticalLabelPosition=top;flipH=1;" vertex="1" parent="1">
          <mxGeometry x="677" y="880" width="8" height="8" as="geometry" />
        </mxCell>
        <mxCell id="RHqpIr7BbqMgwlnsGWP6-118" value="" style="html=1;rounded=0;" vertex="1" parent="1">
          <mxGeometry x="885" y="930" width="30" height="30" as="geometry" />
        </mxCell>
        <mxCell id="RHqpIr7BbqMgwlnsGWP6-119" value="" style="endArrow=none;html=1;rounded=0;align=center;verticalAlign=top;endFill=0;labelBackgroundColor=none;endSize=2;" edge="1" source="RHqpIr7BbqMgwlnsGWP6-118" target="RHqpIr7BbqMgwlnsGWP6-120" parent="1">
          <mxGeometry relative="1" as="geometry" />
        </mxCell>
        <mxCell id="RHqpIr7BbqMgwlnsGWP6-120" value="" style="ellipse;html=1;fontSize=11;align=center;fillColor=none;points=[];aspect=fixed;resizable=0;verticalAlign=bottom;labelPosition=center;verticalLabelPosition=top;flipH=1;" vertex="1" parent="1">
          <mxGeometry x="896" y="888" width="8" height="8" as="geometry" />
        </mxCell>
        <mxCell id="RHqpIr7BbqMgwlnsGWP6-121" value="" style="endArrow=none;html=1;rounded=0;align=center;verticalAlign=top;endFill=0;labelBackgroundColor=none;endSize=2;exitX=0.5;exitY=1;exitDx=0;exitDy=0;" edge="1" parent="1" target="RHqpIr7BbqMgwlnsGWP6-122" source="RHqpIr7BbqMgwlnsGWP6-103">
          <mxGeometry relative="1" as="geometry">
            <mxPoint x="690" y="850" as="sourcePoint" />
          </mxGeometry>
        </mxCell>
        <mxCell id="RHqpIr7BbqMgwlnsGWP6-122" value="" style="shape=requiredInterface;html=1;fontSize=11;align=center;fillColor=none;points=[];aspect=fixed;resizable=0;verticalAlign=bottom;labelPosition=center;verticalLabelPosition=top;flipH=1;rotation=90;" vertex="1" parent="1">
          <mxGeometry x="897.5" y="878" width="5" height="10" as="geometry" />
        </mxCell>
        <mxCell id="RHqpIr7BbqMgwlnsGWP6-123" value="" style="html=1;rounded=0;" vertex="1" parent="1">
          <mxGeometry x="1070" y="930" width="30" height="30" as="geometry" />
        </mxCell>
        <mxCell id="RHqpIr7BbqMgwlnsGWP6-124" value="" style="endArrow=none;html=1;rounded=0;align=center;verticalAlign=top;endFill=0;labelBackgroundColor=none;endSize=2;" edge="1" source="RHqpIr7BbqMgwlnsGWP6-123" target="RHqpIr7BbqMgwlnsGWP6-125" parent="1">
          <mxGeometry relative="1" as="geometry" />
        </mxCell>
        <mxCell id="RHqpIr7BbqMgwlnsGWP6-125" value="" style="ellipse;html=1;fontSize=11;align=center;fillColor=none;points=[];aspect=fixed;resizable=0;verticalAlign=bottom;labelPosition=center;verticalLabelPosition=top;flipH=1;" vertex="1" parent="1">
          <mxGeometry x="1081" y="896" width="8" height="8" as="geometry" />
        </mxCell>
        <mxCell id="RHqpIr7BbqMgwlnsGWP6-126" value="" style="endArrow=none;html=1;rounded=0;align=center;verticalAlign=top;endFill=0;labelBackgroundColor=none;endSize=2;exitX=0.5;exitY=1;exitDx=0;exitDy=0;" edge="1" parent="1" target="RHqpIr7BbqMgwlnsGWP6-127" source="RHqpIr7BbqMgwlnsGWP6-106">
          <mxGeometry relative="1" as="geometry">
            <mxPoint x="910" y="850" as="sourcePoint" />
          </mxGeometry>
        </mxCell>
        <mxCell id="RHqpIr7BbqMgwlnsGWP6-127" value="" style="shape=requiredInterface;html=1;fontSize=11;align=center;fillColor=none;points=[];aspect=fixed;resizable=0;verticalAlign=bottom;labelPosition=center;verticalLabelPosition=top;flipH=1;rotation=90;" vertex="1" parent="1">
          <mxGeometry x="1082.5" y="886" width="5" height="10" as="geometry" />
        </mxCell>
        <mxCell id="RHqpIr7BbqMgwlnsGWP6-131" value="" style="html=1;rounded=0;" vertex="1" parent="1">
          <mxGeometry x="882" y="180" width="30" height="30" as="geometry" />
        </mxCell>
        <mxCell id="RHqpIr7BbqMgwlnsGWP6-132" value="" style="endArrow=none;html=1;rounded=0;align=center;verticalAlign=top;endFill=0;labelBackgroundColor=none;endSize=2;" edge="1" source="RHqpIr7BbqMgwlnsGWP6-131" target="RHqpIr7BbqMgwlnsGWP6-133" parent="1">
          <mxGeometry relative="1" as="geometry" />
        </mxCell>
        <mxCell id="RHqpIr7BbqMgwlnsGWP6-133" value="" style="ellipse;html=1;fontSize=11;align=center;fillColor=none;points=[];aspect=fixed;resizable=0;verticalAlign=bottom;labelPosition=center;verticalLabelPosition=top;flipH=1;" vertex="1" parent="1">
          <mxGeometry x="893" y="230" width="8" height="8" as="geometry" />
        </mxCell>
        <mxCell id="RHqpIr7BbqMgwlnsGWP6-134" value="" style="html=1;rounded=0;" vertex="1" parent="1">
          <mxGeometry x="880" y="280" width="30" height="30" as="geometry" />
        </mxCell>
        <mxCell id="RHqpIr7BbqMgwlnsGWP6-135" value="" style="endArrow=none;html=1;rounded=0;align=center;verticalAlign=top;endFill=0;labelBackgroundColor=none;endSize=2;" edge="1" source="RHqpIr7BbqMgwlnsGWP6-134" target="RHqpIr7BbqMgwlnsGWP6-136" parent="1">
          <mxGeometry relative="1" as="geometry" />
        </mxCell>
        <mxCell id="RHqpIr7BbqMgwlnsGWP6-136" value="" style="shape=requiredInterface;html=1;fontSize=11;align=center;fillColor=none;points=[];aspect=fixed;resizable=0;verticalAlign=bottom;labelPosition=center;verticalLabelPosition=top;flipH=1;rotation=270;" vertex="1" parent="1">
          <mxGeometry x="893" y="238" width="5" height="10" as="geometry" />
        </mxCell>
        <mxCell id="RHqpIr7BbqMgwlnsGWP6-137" value="" style="html=1;rounded=0;" vertex="1" parent="1">
          <mxGeometry x="760" y="360" width="30" height="30" as="geometry" />
        </mxCell>
        <mxCell id="RHqpIr7BbqMgwlnsGWP6-138" value="" style="endArrow=none;html=1;rounded=0;align=center;verticalAlign=top;endFill=0;labelBackgroundColor=none;endSize=2;" edge="1" source="RHqpIr7BbqMgwlnsGWP6-137" target="RHqpIr7BbqMgwlnsGWP6-139" parent="1">
          <mxGeometry relative="1" as="geometry" />
        </mxCell>
        <mxCell id="RHqpIr7BbqMgwlnsGWP6-139" value="" style="shape=requiredInterface;html=1;fontSize=11;align=center;fillColor=none;points=[];aspect=fixed;resizable=0;verticalAlign=bottom;labelPosition=center;verticalLabelPosition=top;flipH=1;" vertex="1" parent="1">
          <mxGeometry x="885" y="342" width="5" height="10" as="geometry" />
        </mxCell>
        <mxCell id="RHqpIr7BbqMgwlnsGWP6-140" value="" style="html=1;rounded=0;" vertex="1" parent="1">
          <mxGeometry x="1040" y="320" width="30" height="30" as="geometry" />
        </mxCell>
        <mxCell id="RHqpIr7BbqMgwlnsGWP6-141" value="" style="endArrow=none;html=1;rounded=0;align=center;verticalAlign=top;endFill=0;labelBackgroundColor=none;endSize=2;" edge="1" source="RHqpIr7BbqMgwlnsGWP6-140" target="RHqpIr7BbqMgwlnsGWP6-142" parent="1">
          <mxGeometry relative="1" as="geometry" />
        </mxCell>
        <mxCell id="RHqpIr7BbqMgwlnsGWP6-142" value="" style="shape=requiredInterface;html=1;fontSize=11;align=center;fillColor=none;points=[];aspect=fixed;resizable=0;verticalAlign=bottom;labelPosition=center;verticalLabelPosition=top;flipH=1;rotation=180;" vertex="1" parent="1">
          <mxGeometry x="901" y="342" width="5" height="10" as="geometry" />
        </mxCell>
        <mxCell id="RHqpIr7BbqMgwlnsGWP6-143" value="" style="endArrow=none;html=1;rounded=0;align=center;verticalAlign=top;endFill=0;labelBackgroundColor=none;endSize=2;exitX=0.5;exitY=1;exitDx=0;exitDy=0;" edge="1" parent="1" target="RHqpIr7BbqMgwlnsGWP6-144" source="RHqpIr7BbqMgwlnsGWP6-134">
          <mxGeometry relative="1" as="geometry">
            <mxPoint x="907" y="220" as="sourcePoint" />
          </mxGeometry>
        </mxCell>
        <mxCell id="RHqpIr7BbqMgwlnsGWP6-144" value="" style="ellipse;html=1;fontSize=11;align=center;fillColor=none;points=[];aspect=fixed;resizable=0;verticalAlign=bottom;labelPosition=center;verticalLabelPosition=top;flipH=1;" vertex="1" parent="1">
          <mxGeometry x="891.5" y="342" width="8" height="8" as="geometry" />
        </mxCell>
        <mxCell id="RHqpIr7BbqMgwlnsGWP6-145" value="" style="html=1;rounded=0;" vertex="1" parent="1">
          <mxGeometry x="1093" y="180" width="30" height="30" as="geometry" />
        </mxCell>
        <mxCell id="RHqpIr7BbqMgwlnsGWP6-146" value="" style="endArrow=none;html=1;rounded=0;align=center;verticalAlign=top;endFill=0;labelBackgroundColor=none;endSize=2;" edge="1" source="RHqpIr7BbqMgwlnsGWP6-145" target="RHqpIr7BbqMgwlnsGWP6-147" parent="1">
          <mxGeometry relative="1" as="geometry" />
        </mxCell>
        <mxCell id="RHqpIr7BbqMgwlnsGWP6-147" value="" style="ellipse;html=1;fontSize=11;align=center;fillColor=none;points=[];aspect=fixed;resizable=0;verticalAlign=bottom;labelPosition=center;verticalLabelPosition=top;flipH=1;" vertex="1" parent="1">
          <mxGeometry x="1104" y="240" width="8" height="8" as="geometry" />
        </mxCell>
        <mxCell id="RHqpIr7BbqMgwlnsGWP6-148" value="" style="html=1;rounded=0;" vertex="1" parent="1">
          <mxGeometry x="1093" y="280" width="30" height="30" as="geometry" />
        </mxCell>
        <mxCell id="RHqpIr7BbqMgwlnsGWP6-149" value="" style="endArrow=none;html=1;rounded=0;align=center;verticalAlign=top;endFill=0;labelBackgroundColor=none;endSize=2;" edge="1" source="RHqpIr7BbqMgwlnsGWP6-148" target="RHqpIr7BbqMgwlnsGWP6-150" parent="1">
          <mxGeometry relative="1" as="geometry" />
        </mxCell>
        <mxCell id="RHqpIr7BbqMgwlnsGWP6-150" value="" style="shape=requiredInterface;html=1;fontSize=11;align=center;fillColor=none;points=[];aspect=fixed;resizable=0;verticalAlign=bottom;labelPosition=center;verticalLabelPosition=top;flipH=1;rotation=270;" vertex="1" parent="1">
          <mxGeometry x="1105.5" y="250" width="5" height="10" as="geometry" />
        </mxCell>
        <mxCell id="RHqpIr7BbqMgwlnsGWP6-151" value="" style="endArrow=none;html=1;rounded=0;align=center;verticalAlign=top;endFill=0;labelBackgroundColor=none;endSize=2;exitX=0.5;exitY=1;exitDx=0;exitDy=0;" edge="1" parent="1" target="RHqpIr7BbqMgwlnsGWP6-152" source="RHqpIr7BbqMgwlnsGWP6-148">
          <mxGeometry relative="1" as="geometry">
            <mxPoint x="907" y="220" as="sourcePoint" />
          </mxGeometry>
        </mxCell>
        <mxCell id="RHqpIr7BbqMgwlnsGWP6-152" value="" style="ellipse;html=1;fontSize=11;align=center;fillColor=none;points=[];aspect=fixed;resizable=0;verticalAlign=bottom;labelPosition=center;verticalLabelPosition=top;flipH=1;" vertex="1" parent="1">
          <mxGeometry x="915" y="538" width="8" height="8" as="geometry" />
        </mxCell>
        <mxCell id="RHqpIr7BbqMgwlnsGWP6-153" value="" style="html=1;rounded=0;" vertex="1" parent="1">
          <mxGeometry x="1063" y="600" width="30" height="30" as="geometry" />
        </mxCell>
        <mxCell id="RHqpIr7BbqMgwlnsGWP6-154" value="" style="endArrow=none;html=1;rounded=0;align=center;verticalAlign=top;endFill=0;labelBackgroundColor=none;endSize=2;" edge="1" source="RHqpIr7BbqMgwlnsGWP6-153" target="RHqpIr7BbqMgwlnsGWP6-155" parent="1">
          <mxGeometry relative="1" as="geometry" />
        </mxCell>
        <mxCell id="RHqpIr7BbqMgwlnsGWP6-155" value="" style="shape=requiredInterface;html=1;fontSize=11;align=center;fillColor=none;points=[];aspect=fixed;resizable=0;verticalAlign=bottom;labelPosition=center;verticalLabelPosition=top;flipH=1;rotation=180;" vertex="1" parent="1">
          <mxGeometry x="923" y="538" width="5" height="10" as="geometry" />
        </mxCell>
        <mxCell id="RHqpIr7BbqMgwlnsGWP6-156" value="" style="html=1;rounded=0;" vertex="1" parent="1">
          <mxGeometry x="677" y="600" width="30" height="30" as="geometry" />
        </mxCell>
        <mxCell id="RHqpIr7BbqMgwlnsGWP6-157" value="" style="endArrow=none;html=1;rounded=0;align=center;verticalAlign=top;endFill=0;labelBackgroundColor=none;endSize=2;" edge="1" source="RHqpIr7BbqMgwlnsGWP6-156" target="RHqpIr7BbqMgwlnsGWP6-158" parent="1">
          <mxGeometry relative="1" as="geometry" />
        </mxCell>
        <mxCell id="RHqpIr7BbqMgwlnsGWP6-158" value="" style="shape=requiredInterface;html=1;fontSize=11;align=center;fillColor=none;points=[];aspect=fixed;resizable=0;verticalAlign=bottom;labelPosition=center;verticalLabelPosition=top;flipH=1;" vertex="1" parent="1">
          <mxGeometry x="910" y="537" width="5" height="10" as="geometry" />
        </mxCell>
        <mxCell id="RHqpIr7BbqMgwlnsGWP6-159" value="Application" style="text;html=1;align=center;verticalAlign=middle;resizable=0;points=[];autosize=1;strokeColor=none;fillColor=none;fontSize=24;" vertex="1" parent="1">
          <mxGeometry x="260" y="290" width="140" height="40" as="geometry" />
        </mxCell>
      </root>
    </mxGraphModel>
  </diagram>
</mxfile>
